<?xml version="1.0" standalone="no"?>
<!DOCTYPE svg PUBLIC "-//W3C//DTD SVG 20010904//EN"
 "http://www.w3.org/TR/2001/REC-SVG-20010904/DTD/svg10.dtd">
<svg version="1.0" xmlns="http://www.w3.org/2000/svg"
 width="512.000000pt" height="512.000000pt" viewBox="0 0 512.000000 512.000000"
 preserveAspectRatio="xMidYMid meet">

<g transform="translate(0.000000,512.000000) scale(0.100000,-0.100000)"
fill="#000000" stroke="none">
<path d="M2315 5109 c-597 -61 -1141 -318 -1563 -739 -1002 -1000 -1002 -2620
0 -3620 406 -405 901 -648 1493 -732 119 -17 512 -16 635 1 579 80 1090 331
1489 732 289 290 495 626 621 1009 80 243 117 448 127 710 26 711 -242 1393
-749 1900 -393 394 -891 643 -1453 726 -122 18 -477 26 -600 13z m615 -378
c704 -128 1282 -558 1599 -1189 250 -498 300 -1074 140 -1612 -120 -405 -371
-787 -691 -1052 -412 -343 -893 -518 -1418 -518 -590 0 -1137 227 -1555 645
-331 331 -536 730 -622 1210 -25 143 -25 547 0 690 86 480 291 879 622 1210
357 357 789 566 1310 635 123 16 484 5 615 -19z"/>
<path d="M2503 3849 c-45 -13 -100 -71 -112 -116 -6 -21 -11 -96 -11 -168 0
-141 13 -187 61 -232 70 -64 191 -56 252 16 41 50 49 93 46 247 -4 124 -6 143
-27 176 -42 67 -132 101 -209 77z"/>
<path d="M2474 3061 c-40 -25 -71 -65 -85 -110 -7 -24 -9 -286 -7 -801 l3
-765 23 -37 c70 -112 234 -112 304 0 l23 37 3 765 c2 526 0 777 -8 802 -13 44
-52 93 -91 113 -40 21 -127 19 -165 -4z"/>
</g>
</svg>
